<?xml version="1.0" standalone="no"?>
<!DOCTYPE svg PUBLIC "-//W3C//DTD SVG 20010904//EN"
 "http://www.w3.org/TR/2001/REC-SVG-20010904/DTD/svg10.dtd">
<svg version="1.0" xmlns="http://www.w3.org/2000/svg"
 width="494.000000pt" height="494.000000pt" viewBox="0 0 494.000000 494.000000"
 preserveAspectRatio="xMidYMid meet">
<metadata>
Created by potrace 1.11, written by Peter Selinger 2001-2013
</metadata>
<g transform="translate(0.000000,494.000000) scale(0.100000,-0.100000)"
fill="#000000" stroke="none">
<path d="M16 3183 c9 -21 18 -45 21 -53 3 -8 14 -33 23 -55 35 -80 103 -241
125 -295 12 -30 96 -228 185 -440 89 -212 178 -423 197 -470 59 -144 52 -137
125 -136 l62 1 122 285 c147 344 138 322 167 390 l25 55 25 -55 c13 -30 66
-154 117 -275 50 -121 100 -239 111 -261 10 -23 27 -63 37 -90 l19 -48 62 -1
c34 -1 65 3 70 9 5 6 46 99 91 206 45 107 88 209 95 225 8 17 50 118 95 225
45 107 88 209 95 225 8 17 44 102 81 190 36 88 88 212 115 274 27 63 49 119
49 123 0 5 -35 8 -77 6 l-78 -3 -265 -647 c-145 -357 -267 -648 -270 -648 -6
0 -280 642 -280 657 0 9 11 36 166 414 46 113 84 209 84 212 0 4 -30 7 -67 7
l-68 0 -104 -261 c-63 -159 -107 -256 -111 -248 -4 8 -51 125 -105 262 l-98
247 -69 0 c-37 0 -68 -1 -68 -3 0 -4 105 -264 194 -479 31 -75 56 -143 56
-151 0 -11 -266 -656 -274 -665 -4 -3 -140 325 -452 1091 l-89 217 -77 0 -78
0 16 -37z"/>
<path d="M2306 3163 c1 -32 2 -61 3 -65 0 -5 118 -8 260 -8 198 0 260 -3 263
-12 2 -7 3 -311 2 -675 0 -365 2 -664 5 -664 3 -1 36 -2 74 -3 l67 -2 0 678 0
678 265 0 265 0 0 65 0 65 -603 0 -602 0 1 -57z"/>
<path d="M3690 3155 l0 -65 265 0 265 0 0 -87 c1 -49 2 -353 3 -678 l2 -590
73 0 72 -1 0 678 0 678 263 0 263 0 2 65 2 65 -605 0 -605 0 0 -65z"/>
<path d="M1995 2022 c-33 -7 -86 -52 -100 -86 -18 -42 -11 -109 15 -146 85
-120 281 -49 266 97 -6 49 -15 70 -48 99 -33 31 -88 46 -133 36z"/>
<path d="M3390 2023 c-56 -16 -89 -39 -109 -73 -38 -68 -21 -146 43 -195 32
-24 42 -27 96 -23 66 5 91 21 120 78 34 68 6 161 -59 195 -33 17 -70 24 -91
18z"/>
<path d="M4718 2006 c-93 -49 -105 -169 -24 -245 34 -32 119 -41 163 -17 44
22 77 81 77 132 -2 112 -118 182 -216 130z"/>
</g>
</svg>
