<svg version="1.0" xmlns="http://www.w3.org/2000/svg" width="658.667" height="658.667" viewBox="0 0 494 494"><path d="M1.6 175.7c.9 2.1 1.8 4.5 2.1 5.3.3.8 1.4 3.3 2.3 5.5 3.5 8 10.3 24.1 12.5 29.5 1.2 3 9.6 22.8 18.5 44s17.8 42.3 19.7 47c5.9 14.4 5.2 13.7 12.5 13.6l6.2-.1L87.6 292c14.7-34.4 13.8-32.2 16.7-39l2.5-5.5 2.5 5.5c1.3 3 6.6 15.4 11.7 27.5 5 12.1 10 23.9 11.1 26.1 1 2.3 2.7 6.3 3.7 9l1.9 4.8 6.2.1c3.4.1 6.5-.3 7-.9.5-.6 4.6-9.9 9.1-20.6 4.5-10.7 8.8-20.9 9.5-22.5.8-1.7 5-11.8 9.5-22.5s8.8-20.9 9.5-22.5c.8-1.7 4.4-10.2 8.1-19 3.6-8.8 8.8-21.2 11.5-27.4 2.7-6.3 4.9-11.9 4.9-12.3 0-.5-3.5-.8-7.7-.6l-7.8.3-26.5 64.7c-14.5 35.7-26.7 64.8-27 64.8-.6 0-28-64.2-28-65.7 0-.9 1.1-3.6 16.6-41.4 4.6-11.3 8.4-20.9 8.4-21.2 0-.4-3-.7-6.7-.7h-6.8l-10.4 26.1c-6.3 15.9-10.7 25.6-11.1 24.8-.4-.8-5.1-12.5-10.5-26.2L85.7 173h-6.9c-3.7 0-6.8.1-6.8.3 0 .4 10.5 26.4 19.4 47.9 3.1 7.5 5.6 14.3 5.6 15.1 0 1.1-26.6 65.6-27.4 66.5-.4.3-14-32.5-45.2-109.1L15.5 172H0l1.6 3.7zM230.6 177.7c.1 3.2.2 6.1.3 6.5 0 .5 11.8.8 26 .8 19.8 0 26 .3 26.3 1.2.2.7.3 31.1.2 67.5 0 36.5.2 66.4.5 66.4.3.1 3.6.2 7.4.3l6.7.2V185h53v-13H230.5l.1 5.7zM369 178.5v6.5h53v8.7c.1 4.9.2 35.3.3 67.8l.2 59h7.3l7.2.1V185h52.6l.2-6.5.2-6.5H369v6.5zM199.5 291.8c-3.3.7-8.6 5.2-10 8.6-1.8 4.2-1.1 10.9 1.5 14.6 8.5 12 28.1 4.9 26.6-9.7-.6-4.9-1.5-7-4.8-9.9-3.3-3.1-8.8-4.6-13.3-3.6zM339 291.7c-5.6 1.6-8.9 3.9-10.9 7.3-3.8 6.8-2.1 14.6 4.3 19.5 3.2 2.4 4.2 2.7 9.6 2.3 6.6-.5 9.1-2.1 12-7.8 3.4-6.8.6-16.1-5.9-19.5-3.3-1.7-7-2.4-9.1-1.8zM471.8 293.4c-9.3 4.9-10.5 16.9-2.4 24.5 3.4 3.2 11.9 4.1 16.3 1.7 4.4-2.2 7.7-8.1 7.7-13.2-.2-11.2-11.8-18.2-21.6-13z"/></svg>