<svg width="0" height="0" class="hidden">
  <symbol xmlns="http://www.w3.org/2000/svg" viewBox="0 0 42.67 60.685" id="arrow-down">
    <path d="M42.028 40.865A2.152 2.152 0 0 0 39 37.807L23.493 53.314V2.141A2.131 2.131 0 0 0 21.35 0a2.154 2.154 0 0 0-2.172 2.141v51.173L3.7 37.806a2.2 2.2 0 0 0-3.058 0 2.143 2.143 0 0 0 0 3.058L19.82 60.043a2.106 2.106 0 0 0 3.028 0z" fill="#3d2721"></path>
  </symbol>
  <symbol xmlns="http://www.w3.org/2000/svg" viewBox="0 0 16.5 21.786" id="bag-add">
    <path d="M8 17.537a4.254 4.254 0 0 1 4.25-4.25 4.255 4.255 0 0 1 4.251 4.25 4.256 4.256 0 0 1-4.251 4.25A4.256 4.256 0 0 1 8 17.537zm2 .075a.318.318 0 0 0 .318.316h1.541v1.541a.318.318 0 0 0 .316.316.317.317 0 0 0 .316-.316v-1.541h1.544a.317.317 0 0 0 .314-.316.317.317 0 0 0-.314-.318h-1.544v-1.541a.316.316 0 0 0-.316-.316.317.317 0 0 0-.316.316v1.541h-1.541a.318.318 0 0 0-.318.318zM8.274 20.46zm-5.839 0a2.382 2.382 0 0 1-1.8-.833 2.633 2.633 0 0 1-.628-1.957L1.043 5.697a.617.617 0 0 1 .607-.581h1.825V3.838A3.753 3.753 0 0 1 7.126.001 3.588 3.588 0 0 1 9.71 1.123a3.914 3.914 0 0 1 1.066 2.715v1.278h1.827a.616.616 0 0 1 .605.581l.631 7.273a5.007 5.007 0 0 0-1.342-.183 5.006 5.006 0 0 0-5 5 5 5 0 0 0 .774 2.675zm2.26-16.623v1.278h4.87V3.837a2.609 2.609 0 0 0-.711-1.811 2.39 2.39 0 0 0-1.724-.747 2.5 2.5 0 0 0-2.435 2.558z"
      fill="#3d2721"></path>
  </symbol>
  <symbol xmlns="http://www.w3.org/2000/svg" viewBox="0 0 34 42.478" id="bag-outline">
    <path d="M33.991 36.718L31.559 9.329a1.171 1.171 0 0 0-1.164-1.068h-5a8.392 8.392 0 0 0-16.783 0h-5a1.165 1.165 0 0 0-1.164 1.068L.009 36.718c0 .035-.009.069-.009.1 0 3.119 2.858 5.655 6.376 5.655h21.248c3.518 0 6.376-2.537 6.376-5.655a.424.424 0 0 0-.009-.1zM17 2.345a6.052 6.052 0 0 1 6.046 5.916H10.954A6.052 6.052 0 0 1 17 2.345zm10.624 37.787H6.376c-2.206 0-4-1.459-4.031-3.257l2.328-26.26H8.6v3.562a1.173 1.173 0 0 0 2.345 0v-3.562h12.1v3.562a1.173 1.173 0 0 0 2.345 0v-3.562h3.926l2.337 26.26c-.034 1.798-1.832 3.257-4.029 3.257z"
      fill="#3d2721"></path>
  </symbol>
  <symbol xmlns="http://www.w3.org/2000/svg" viewBox="0 0 17.499 20.783" id="delete-bin">
    <path d="M10.246 19.54a4.252 4.252 0 0 1 0-6.011 4.254 4.254 0 0 1 6.009 0 4.257 4.257 0 0 1 0 6.012 4.234 4.234 0 0 1-3 1.242 4.238 4.238 0 0 1-3.009-1.243zm3.991-1.466a.315.315 0 0 0 .446 0 .318.318 0 0 0 0-.448l-1.092-1.092 1.09-1.09a.318.318 0 0 0 0-.448.32.32 0 0 0-.448 0l-1.09 1.09-1.09-1.09a.318.318 0 0 0-.448 0 .317.317 0 0 0 0 .448l1.09 1.092-1.09 1.088a.318.318 0 0 0 0 .448.317.317 0 0 0 .448 0l1.09-1.09zm-4.863 1.21h-6.16a2.145 2.145 0 0 1-2.142-2.142V4.284h12.856v7.549a4.776 4.776 0 0 0-.679-.048 4.755 4.755 0 0 0-4.749 4.75 4.723 4.723 0 0 0 .875 2.747zM0 3.214V1.071h3.75L4.821 0h5.357l1.072 1.071H15v2.143z"
      fill="#3d2721"></path>
  </symbol>
  <symbol xmlns="http://www.w3.org/2000/svg" viewBox="0 0 28.951 21.713" id="email">
    <g fill="#3d2721">
      <path d="M.604 1.762c3.973 3.365 10.945 9.285 12.995 11.131a1.211 1.211 0 0 0 1.751 0c2.051-1.848 9.023-7.768 13-11.133a.6.6 0 0 0 .085-.832A2.4 2.4 0 0 0 26.538 0H2.412A2.4 2.4 0 0 0 .519.929a.6.6 0 0 0 .085.833z"></path>
      <path d="M28.6 3.585a.6.6 0 0 0-.643.087c-4.406 3.735-10.03 8.523-11.8 10.118a2.442 2.442 0 0 1-3.367 0c-1.886-1.7-8.2-7.068-11.8-10.117a.6.6 0 0 0-.993.46v15.168a2.415 2.415 0 0 0 2.416 2.416h24.125a2.415 2.415 0 0 0 2.413-2.413V4.132a.6.6 0 0 0-.351-.547z"></path>
    </g>
  </symbol>
  <symbol xmlns="http://www.w3.org/2000/svg" viewBox="0 0 25.63 25.63" id="facebook">
    <path d="M19.2 0H6.408A6.437 6.437 0 0 0 0 6.428v12.794a6.433 6.433 0 0 0 6.408 6.408H19.2a6.441 6.441 0 0 0 6.43-6.43V6.428A6.441 6.441 0 0 0 19.2 0zm-2.947 12.815h-2.421v7.933h-3.051v-7.933H9.154V9.56h1.424V8.177a3.15 3.15 0 0 1 3.4-3.356h2.5v2.705h-1.77c-.285 0-.671.183-.671.814v1.22h2.5z"
      fill="#3d2721"></path>
  </symbol>
  <symbol xmlns="http://www.w3.org/2000/svg" viewBox="0 0 44.96 40" id="fav-filled">
    <path d="M41.394 3.915A12.09 12.09 0 0 0 32.4 0a11.311 11.311 0 0 0-7.064 2.439 14.453 14.453 0 0 0-2.856 2.982 14.445 14.445 0 0 0-2.856-2.982A11.309 11.309 0 0 0 12.56 0a12.09 12.09 0 0 0-8.993 3.915A14.054 14.054 0 0 0 0 13.512c0 3.8 1.417 7.283 4.459 10.954 2.722 3.284 6.633 6.617 11.162 10.477 1.547 1.318 3.3 2.812 5.12 4.4a2.639 2.639 0 0 0 3.475 0c1.82-1.592 3.575-3.087 5.122-4.406 4.529-3.859 8.44-7.192 11.162-10.476 3.042-3.671 4.459-7.151 4.459-10.954a14.052 14.052 0 0 0-3.567-9.6zm0 0"
      fill="#3d2721"></path>
  </symbol>
  <symbol xmlns="http://www.w3.org/2000/svg" viewBox="0 0 44.96 40" id="fav-outline">
    <path d="M22.48 40a2.636 2.636 0 0 1-1.738-.653c-1.816-1.588-3.567-3.081-5.112-4.4l-.008-.007c-4.53-3.86-8.441-7.193-11.162-10.477C1.417 20.795 0 17.314 0 13.512a14.052 14.052 0 0 1 3.567-9.6A12.09 12.09 0 0 1 12.56 0a11.309 11.309 0 0 1 7.064 2.439 14.453 14.453 0 0 1 2.856 2.982 14.454 14.454 0 0 1 2.856-2.982A11.309 11.309 0 0 1 32.4 0a12.09 12.09 0 0 1 8.993 3.915 14.052 14.052 0 0 1 3.566 9.6c0 3.8-1.417 7.283-4.459 10.954-2.722 3.284-6.633 6.617-11.161 10.477a536.157 536.157 0 0 0-5.122 4.405A2.638 2.638 0 0 1 22.48 40zM12.56 2.634A9.485 9.485 0 0 0 5.5 5.7a11.431 11.431 0 0 0-2.869 7.812c0 3.2 1.189 6.058 3.853 9.273 2.576 3.108 6.407 6.373 10.843 10.153l.008.007c1.551 1.322 3.309 2.82 5.138 4.42 1.841-1.6 3.6-3.1 5.155-4.427 4.436-3.78 8.266-7.045 10.842-10.153 2.665-3.215 3.853-6.076 3.853-9.273A11.431 11.431 0 0 0 39.457 5.7 9.484 9.484 0 0 0 32.4 2.634a8.735 8.735 0 0 0-5.453 1.888 12.78 12.78 0 0 0-3.039 3.517 1.662 1.662 0 0 1-2.856 0 12.768 12.768 0 0 0-3.039-3.517 8.734 8.734 0 0 0-5.453-1.888zm0 0"
      fill="#3d2721"></path>
  </symbol>
  <symbol xmlns="http://www.w3.org/2000/svg" viewBox="0 0 29.267 41.318" id="filter-her">
    <path d="M29.267 14.633a14.633 14.633 0 1 0-16.355 14.524v3.553H9.469a1.722 1.722 0 0 0 0 3.443h3.443V39.6a1.722 1.722 0 0 0 3.443 0v-3.447H19.8a1.722 1.722 0 1 0 0-3.443h-3.445v-3.553a14.649 14.649 0 0 0 12.912-14.524zm-25.823 0a11.19 11.19 0 1 1 11.19 11.19 11.2 11.2 0 0 1-11.191-11.19zm0 0"
      fill="#a77b58"></path>
  </symbol>
  <symbol xmlns="http://www.w3.org/2000/svg" viewBox="0 0 38 38" id="filter-him">
    <path d="M37.98 1.379a1.569 1.569 0 0 0-.1-.391.048.048 0 0 1 0-.011 1.611 1.611 0 0 0-.215-.357A1.073 1.073 0 0 0 37.6.542a1.615 1.615 0 0 0-.3-.273l-.01-.005a1.559 1.559 0 0 0-.36-.171.846.846 0 0 0-.1-.029A1.578 1.578 0 0 0 36.417 0H25.333a1.584 1.584 0 0 0 0 3.167h7.26l-9.45 9.45a14.259 14.259 0 1 0 2.239 2.24l9.451-9.451v7.261a1.584 1.584 0 0 0 3.167 0V1.583c0-.033-.008-.065-.01-.1s-.006-.071-.011-.107zM14.25 34.833A11.09 11.09 0 1 1 25.333 23.75 11.1 11.1 0 0 1 14.25 34.833zm0 0"
      fill="#a77b58"></path>
  </symbol>
  <symbol xmlns="http://www.w3.org/2000/svg" viewBox="0 0 21.995 23.001" id="filter-icon-settings">
    <path d="M18.542 22.323V11.791a2.881 2.881 0 0 1-2.305-2.823 2.881 2.881 0 0 1 2.305-2.823V.676a.676.676 0 0 1 .676-.677.677.677 0 0 1 .677.677v5.518a2.88 2.88 0 0 1 2.1 2.774 2.88 2.88 0 0 1-2.1 2.773v10.581a.677.677 0 0 1-.677.677.677.677 0 0 1-.676-.676zm-8.118 0v-1.738a2.881 2.881 0 0 1-2.305-2.823 2.881 2.881 0 0 1 2.305-2.823V.676a.677.677 0 0 1 .676-.677.677.677 0 0 1 .677.677v14.312a2.881 2.881 0 0 1 2.1 2.773 2.881 2.881 0 0 1-2.1 2.773v1.787a.677.677 0 0 1-.677.677.678.678 0 0 1-.676-.675zm-8.118 0V9.084A2.882 2.882 0 0 1 .001 6.261a2.882 2.882 0 0 1 2.305-2.823V.676a.678.678 0 0 1 .678-.677.676.676 0 0 1 .676.677v2.812a2.881 2.881 0 0 1 2.1 2.773 2.881 2.881 0 0 1-2.1 2.774v13.288a.676.676 0 0 1-.676.677.678.678 0 0 1-.683-.677z"
      fill="#3d2721"></path>
  </symbol>
  <symbol xmlns="http://www.w3.org/2000/svg" viewBox="0 0 66.654 56.633" id="free-shipping">
    <path d="M61.988 32.345l-1.726-6.9a1.044 1.044 0 0 0 .826-1.021v-1.117a4.388 4.388 0 0 0-4.388-4.384h-7.857v-2.3a2.159 2.159 0 0 0-2.157-2.157H32.067l8.884-3.552a1.044 1.044 0 0 0-.775-1.938L32.9 11.888a24.531 24.531 0 0 0 5.244-4.082 4.86 4.86 0 1 0-7.73-5.895c-1.188 1.557-2.754 5.933-3.769 9.016-1.014-3.083-2.581-7.459-3.769-9.016a4.86 4.86 0 0 0-7.73 5.895 24.523 24.523 0 0 0 5.244 4.082l-7.27-2.909a1.044 1.044 0 1 0-.775 1.938l8.884 3.553H6.61a2.159 2.159 0 0 0-2.157 2.157v18.925a1.044 1.044 0 1 0 2.087 0V16.627a.069.069 0 0 1 .07-.07h40.075a.069.069 0 0 1 .07.07v18.925a1.044 1.044 0 1 0 2.087 0v-1.183H61.16a3.415 3.415 0 0 1 3.24 2.366h-3.243a1.044 1.044 0 0 0-1.044 1.044v2.226a3.274 3.274 0 0 0 3.27 3.27h1.183v4.592h-2.728a6.608 6.608 0 0 0-12.493 0h-.5v-7.862a1.044 1.044 0 0 0-2.087 0v7.862H25.1a6.608 6.608 0 0 0-12.493 0h-6a.07.07 0 0 1-.07-.07v-2.3h4.522a1.044 1.044 0 0 0 0-2.087H1.044a1.044 1.044 0 0 0 0 2.087h3.409v2.3a2.159 2.159 0 0 0 2.157 2.157h5.637v.07a6.61 6.61 0 0 0 13.219 0v-.07h23.52v.07a6.61 6.61 0 0 0 13.219 0v-.07h3.405a1.044 1.044 0 0 0 1.044-1.04V37.779a5.5 5.5 0 0 0-4.666-5.434zM22.509 10.75c-4.117-2.558-5.338-3.735-5.7-4.209a2.773 2.773 0 0 1 4.41-3.363c1.01 1.324 2.591 5.779 3.634 8.989-.703-.415-1.513-.9-2.344-1.417zm5.933 1.417c1.044-3.21 2.625-7.665 3.634-8.989a2.773 2.773 0 0 1 4.41 3.363c-.362.474-1.583 1.651-5.7 4.209-.83.516-1.64 1.002-2.344 1.417zm20.4 8.844H56.7a2.3 2.3 0 0 1 2.3 2.3v.07H48.843zm0 11.271v-6.819h9.274l1.7 6.818zM18.855 54.546a4.522 4.522 0 1 1 4.522-4.522 4.528 4.528 0 0 1-4.522 4.522zm36.736 0a4.522 4.522 0 1 1 4.522-4.522 4.528 4.528 0 0 1-4.522 4.522zm8.975-13.359h-1.182a1.184 1.184 0 0 1-1.184-1.182v-1.183h2.366v2.366z"
      fill="#3d2721"></path>
    <path d="M18.855 47.867a2.157 2.157 0 1 0 2.157 2.157 2.159 2.159 0 0 0-2.157-2.157zm36.736 0a2.157 2.157 0 1 0 2.157 2.157 2.159 2.159 0 0 0-2.157-2.157zm-12.245-4.453H27.761a1.044 1.044 0 1 0 0 2.087h15.585a1.044 1.044 0 1 0 0-2.087zm-26.722-4.453H3.27a1.044 1.044 0 1 0 0 2.087h13.354a1.044 1.044 0 1 0 0-2.087zm.005-15.585h-4.453a1.044 1.044 0 0 0-1.044 1.044v8.91a1.044 1.044 0 0 0 2.087 0v-3.409h2.3a1.044 1.044 0 1 0 0-2.087h-2.298v-2.365h3.409a1.044 1.044 0 1 0 0-2.087zm8.213 7.03a3.825 3.825 0 0 0-2.09-7.03h-2.783a1.044 1.044 0 0 0-1.044 1.044v8.91a1.044 1.044 0 0 0 2.087 0v-2.3h1.737l1.917 2.875a1.044 1.044 0 0 0 1.737-1.158zm-2.09-1.463h-1.739v-3.479h1.743a1.74 1.74 0 1 1 0 3.479zm10.575 3.339h-3.409v-2.369h2.296a1.044 1.044 0 0 0 0-2.087h-2.296v-2.369h3.409a1.044 1.044 0 1 0 0-2.087h-4.453a1.044 1.044 0 0 0-1.044 1.044v8.916a1.044 1.044 0 0 0 1.044 1.044h4.453a1.044 1.044 0 1 0 0-2.087zm7.793 0h-3.409v-2.366h1.183a1.044 1.044 0 0 0 0-2.087h-1.183v-2.366h3.409a1.044 1.044 0 0 0 0-2.087h-4.453a1.044 1.044 0 0 0-1.044 1.044v8.91a1.044 1.044 0 0 0 1.044 1.044h4.453a1.044 1.044 0 1 0 0-2.087z"
      fill="#3d2721"></path>
  </symbol>
  <symbol xmlns="http://www.w3.org/2000/svg" viewBox="0 0 46.344 57.065" id="gift">
    <path d="M43.721 16.975H29.803l9.314-7.54a2.623 2.623 0 0 0 .2-3.893L34.547.768a2.623 2.623 0 0 0-3.893.2L24.725 8.3a.836.836 0 1 0 1.3 1.052l5.93-7.325a.951.951 0 0 1 1.411-.074l4.774 4.774a.951.951 0 0 1-.074 1.412l-8.769 7.1a4.4 4.4 0 0 0-1.08-2.179l4.928-4.928a.836.836 0 0 0-1.182-1.182l-5.1 5.1a4.384 4.384 0 0 0-1.9-.432h-.66L15.69.973a2.623 2.623 0 0 0-3.893-.2L7.022 5.542a2.623 2.623 0 0 0 .2 3.893l9.314 7.54H2.623A2.626 2.626 0 0 0 .003 19.6v8.934a2.627 2.627 0 0 0 1.787 2.485v23.423a2.626 2.626 0 0 0 2.623 2.623h37.521a2.626 2.626 0 0 0 2.623-2.623V31.018a2.627 2.627 0 0 0 1.787-2.485V19.6a2.626 2.626 0 0 0-2.623-2.623zm-16.024-.951v.951h-9.05v-.951a2.741 2.741 0 0 1 2.738-2.738h3.574a2.741 2.741 0 0 1 2.738 2.738zM25.91 55.393h-5.476V18.647h5.476zM7.927 7.447a.94.94 0 0 1 .277-.722l4.775-4.775a.951.951 0 0 1 1.412.074l7.764 9.59h-.769a4.384 4.384 0 0 0-1.9.432l-5.1-5.1a.836.836 0 0 0-1.183 1.182l4.928 4.928a4.4 4.4 0 0 0-1.08 2.179l-8.769-7.1a.939.939 0 0 1-.351-.689zm-4.469 47V31.155h12.566a.836.836 0 0 0 0-1.672H2.623a.952.952 0 0 1-.951-.951V19.6a.952.952 0 0 1 .951-.951h16.14v36.744H4.41a.952.952 0 0 1-.951-.951zm38.476.951H27.582V31.155h15.3v23.287a.952.952 0 0 1-.948.951zm2.738-26.861a.952.952 0 0 1-.951.951H27.582V18.647h16.14a.952.952 0 0 1 .951.951z"
      fill="#3d2721"></path>
  </symbol>
  <symbol xmlns="http://www.w3.org/2000/svg" viewBox="0 0 25.634 25.633" id="instagram">
    <path d="M18.695 0H6.939A6.947 6.947 0 0 0 .001 6.939v11.756a6.947 6.947 0 0 0 6.939 6.939h11.755a6.946 6.946 0 0 0 6.939-6.939V6.939A6.947 6.947 0 0 0 18.695 0zm-5.878 19.826a7.009 7.009 0 1 1 7.009-7.009 7.017 7.017 0 0 1-7.009 7.009zm7.176-12.365a2.071 2.071 0 1 1 2.072-2.071 2.073 2.073 0 0 1-2.072 2.071zm0 0"
      fill="#3d2721"></path>
    <path d="M12.817 7.311a5.506 5.506 0 1 0 5.506 5.506 5.512 5.512 0 0 0-5.506-5.506zm7.177-2.49a.568.568 0 1 0 .568.568.569.569 0 0 0-.568-.568zm0 0" fill="#3d2721"></path>
  </symbol>
  <symbol xmlns="http://www.w3.org/2000/svg" viewBox="0 0 9.364 17.727" id="next">
    <path d="M9.22 8.51L.857.148a.502.502 0 1 0-.71.71l8.006 8.006-8.009 8.005a.5.5 0 0 0 .353.858.489.489 0 0 0 .353-.149l8.363-8.363a.5.5 0 0 0 .007-.705z" fill="#3d2721"></path>
  </symbol>
  <symbol xmlns="http://www.w3.org/2000/svg" viewBox="0 0 23.146 15" id="paying-discover">
    <path d="M20.007 5.492a.174.174 0 1 0 .168.174.171.171 0 0 0-.168-.174zm.038.3l-.068-.094v.094h-.058v-.246h.078c.059 0 .092.027.092.075a.067.067 0 0 1-.053.068l.079.1z" fill="#3d2721"></path>
    <path d="M19.987 5.59h-.01v.063h.01c.029 0 .044-.01.044-.032s-.018-.031-.044-.031z" fill="#3d2721"></path>
    <path d="M22.55 0H.6a.6.6 0 0 0-.6.6v13.804a.6.6 0 0 0 .6.6h21.95a.6.6 0 0 0 .6-.6V.596a.6.6 0 0 0-.6-.596zm-2.494 5.461a.209.209 0 1 1-.209.209.209.209 0 0 1 .209-.209zm-1.989.054h.788c.613 0 .964.294.964.8a.725.725 0 0 1-.621.772l.858 1.147H19.4l-.735-1.094H18.6v1.094h-.532zm-1.858 0h1.506v.461h-.975v.6h.94v.461h-.94v.735h.975v.461H16.21zm-2.277 0l.726 1.829.736-1.829h.575l-1.177 2.793h-.284l-1.155-2.797h.58zm-3.2.808a1.449 1.449 0 0 1 2.783.563 1.432 1.432 0 0 1-.03.293c0 .021-.011.042-.016.063s-.012.05-.02.075a1.448 1.448 0 1 1-2.717-.994zm-.94-.868a1.353 1.353 0 0 1 .653.167v.625a.889.889 0 0 0-.666-.307.9.9 0 0 0-.889.935.89.89 0 0 0 .914.939.849.849 0 0 0 .641-.3v.625a1.453 1.453 0 0 1-.666.159 1.41 1.41 0 0 1-1.437-1.42A1.431 1.431 0 0 1 9.8 5.45zM4.827 7.92a1.417 1.417 0 0 1-.971.315H3.08V5.511h.779A1.353 1.353 0 0 1 5.32 6.875a1.369 1.369 0 0 1-.493 1.045zm1.269.314h-.53V5.511H6.1zm1.143.066a1.058 1.058 0 0 1-.939-.519l.343-.331a.628.628 0 0 0 .579.363.388.388 0 0 0 .412-.384.326.326 0 0 0-.159-.282 2.118 2.118 0 0 0-.367-.155c-.5-.179-.669-.372-.669-.747a.8.8 0 0 1 .848-.78 1.194 1.194 0 0 1 .8.3l-.278.364a.55.55 0 0 0-.428-.221c-.229 0-.4.13-.4.3 0 .146.094.225.413.343.6.22.783.416.783.849a.879.879 0 0 1-.938.9zm15.491 6.287H8.276c9.349-1.612 14.453-5.214 14.453-5.214z"
      fill="#3d2721"></path>
    <path d="M4.49 6.184a1 1 0 0 0-.737-.224h-.145v1.828h.145a1.021 1.021 0 0 0 .737-.22.947.947 0 0 0 .3-.7.93.93 0 0 0-.3-.684zm14.205-.25h-.165v.837h.157c.344 0 .527-.149.527-.428s-.183-.409-.519-.409z" fill="#3d2721"></path>
  </symbol>
  <symbol xmlns="http://www.w3.org/2000/svg" viewBox="0 0 23.146 15" id="paying-gift-card">
    <path d="M9.523 11.312a.53.53 0 0 0 .567.577.9.9 0 0 0 .872-.6.642.642 0 0 0 .035-.193v-.579c-.978.005-1.474.273-1.474.795z" fill="#3d2721"></path>
    <path d="M22.55 0H.6a.6.6 0 0 0-.6.6v13.804a.6.6 0 0 0 .6.6h21.95a.6.6 0 0 0 .6-.6V.596a.6.6 0 0 0-.6-.596zM6.726 11.807a2.843 2.843 0 0 0 1.152-.225.15.15 0 0 1 .131 0 .154.154 0 0 1 .084.1l.154.592a.154.154 0 0 1-.08.176 3.837 3.837 0 0 1-1.6.291 2.856 2.856 0 0 1-3.009-3.08 3.047 3.047 0 0 1 3.176-3.193 3.2 3.2 0 0 1 1.445.275.153.153 0 0 1 .077.18l-.18.61a.153.153 0 0 1-.085.1.157.157 0 0 1-.129 0 2.576 2.576 0 0 0-1.1-.225 2 2 0 0 0-2.1 2.233 1.952 1.952 0 0 0 2.064 2.166zm5.331.793a.152.152 0 0 1-.118.055h-.687a.154.154 0 0 1-.153-.136l-.024-.209a1.748 1.748 0 0 1-1.18.44 1.341 1.341 0 0 1-1.424-1.347c0-.624.328-1.662 2.5-1.7a.691.691 0 0 0-.789-.741 1.9 1.9 0 0 0-1 .285.157.157 0 0 1-.134.016.153.153 0 0 1-.1-.1l-.172-.5a.153.153 0 0 1 .061-.179 2.725 2.725 0 0 1 1.449-.394 1.62 1.62 0 0 1 1.733 1.853v1.554a5.616 5.616 0 0 0 .066.968.159.159 0 0 1-.028.135zm.173-5.457a.154.154 0 0 1-.1.145 4.428 4.428 0 0 1-1.47.262 2.525 2.525 0 0 1-1.834-.652 2.538 2.538 0 0 1-.694-1.837 2.469 2.469 0 0 1 2.656-2.54 2.989 2.989 0 0 1 1.219.228.154.154 0 0 1 .08.182l-.144.487a.152.152 0 0 1-.083.1.158.158 0 0 1-.127 0 2.219 2.219 0 0 0-.959-.186 1.581 1.581 0 0 0-1.7 1.7A1.536 1.536 0 0 0 10.7 6.749a2.2 2.2 0 0 0 .642-.074v-1.12h-.786a.154.154 0 0 1-.154-.154v-.48a.154.154 0 0 1 .154-.154h1.522a.154.154 0 0 1 .154.154zm1.043-4.576a.51.51 0 0 1 .523.531.5.5 0 0 1-.138.365.547.547 0 0 1-.4.159.527.527 0 0 1 .014-1.054zm-.457 4.781V4.03a.154.154 0 0 1 .154-.154h.6a.154.154 0 0 1 .154.154v3.318a.154.154 0 0 1-.154.154h-.6a.154.154 0 0 1-.155-.154zm2.479 1.642a.154.154 0 0 1-.186.15.988.988 0 0 0-.225-.022.9.9 0 0 0-.862.844 2.038 2.038 0 0 0-.032.325v2.215a.154.154 0 0 1-.154.154h-.747a.154.154 0 0 1-.154-.154V9.643c0-.539-.01-.936-.034-1.287a.154.154 0 0 1 .153-.164h.661a.154.154 0 0 1 .154.148l.009.3a1.277 1.277 0 0 1 1.3-.512.154.154 0 0 1 .116.149zm-.062-1.488h-.6a.154.154 0 0 1-.154-.154V4.643h-.312a.154.154 0 0 1-.154-.154V4.03a.154.154 0 0 1 .154-.154h.313a1.685 1.685 0 0 1 .432-1.27 1.3 1.3 0 0 1 .915-.351 1.542 1.542 0 0 1 .572.108.154.154 0 0 1 .093.169l-.082.466a.154.154 0 0 1-.216.113.754.754 0 0 0-.319-.061c-.134 0-.491 0-.491.806v.025h.648a.15.15 0 0 1 .121.063.149.149 0 0 1 .12-.063h.361V3.24a.153.153 0 0 1 .114-.148l.589-.158a.153.153 0 0 1 .193.148v.8h.709a.154.154 0 0 1 .154.154v.459a.154.154 0 0 1-.154.154h-.709v1.635c0 .453.148.491.3.491a1.212 1.212 0 0 0 .31-.036.153.153 0 0 1 .193.139l.027.452a.154.154 0 0 1-.095.152 1.642 1.642 0 0 1-.593.094.98.98 0 0 1-.767-.307 1.348 1.348 0 0 1-.27-.965V4.643h-.361a.149.149 0 0 1-.12-.063.151.151 0 0 1-.121.063h-.648v2.705a.155.155 0 0 1-.153.154zm4.314 5.1a.153.153 0 0 1-.113.05h-.679a.154.154 0 0 1-.154-.146l-.014-.3a1.768 1.768 0 0 1-1.3.537 2.048 2.048 0 0 1-1.931-2.266 2.529 2.529 0 0 1 .668-1.823 1.89 1.89 0 0 1 1.349-.563 1.683 1.683 0 0 1 1.117.383V6.405a.154.154 0 0 1 .154-.154h.756a.154.154 0 0 1 .154.154v5.023c0 .256 0 .734.034 1.059a.146.146 0 0 1-.042.116z"
      fill="#3d2721"></path>
    <path d="M18.468 9.739a.971.971 0 0 0-.956-.773c-.673 0-1.107.578-1.107 1.474 0 .679.286 1.4 1.09 1.4a1 1 0 0 0 .973-.8 1.176 1.176 0 0 0 .03-.295v-.724a1.246 1.246 0 0 0-.03-.282z" fill="#3d2721"></path>
  </symbol>
  <symbol xmlns="http://www.w3.org/2000/svg" viewBox="0 0 23.146 15" id="paying-maestro">
    <path d="M12.985 4.965h-2.749c-.176.332-.292.584-.325.646h3.334a6.09 6.09 0 0 0-.26-.646zm-4.094 1.56a3.229 3.229 0 0 0-.852.124l-.094.532.059-.015.1-.026a2.523 2.523 0 0 1 .588-.065c.332 0 .46.058.46.214a.707.707 0 0 1-.026.154 2.83 2.83 0 0 0-.29-.018c-.792 0-1.252.337-1.252.911a.616.616 0 0 0 .648.645.96.96 0 0 0 .75-.285l-.017.245h.6l.008-.064.009-.081.017-.12.025-.15.154-.84a2.616 2.616 0 0 0 .051-.468c0-.453-.324-.693-.938-.693zm-.357 1.954a.23.23 0 0 1-.255-.241c0-.239.2-.359.6-.359a1.348 1.348 0 0 1 .162.009c-.013.35-.217.591-.507.591zM6.703 6.041l-.793 1.8-.051-1.8h-1.12l-.554 2.905h.654l.426-2.22.119 2.22h.648l.98-2.234-.426 2.234h.716l.562-2.905zm12.735 2.668a.067.067 0 0 0-.017-.041.1.1 0 0 0-.042-.009h-.068v.163h.038v-.064h.025l.026.064h.042l-.025-.071a.044.044 0 0 0 .021-.042zm-.051.018a.052.052 0 0 1-.017 0h-.026v-.041h.043s.009.01.009.016a.018.018 0 0 1-.009.025zm1.547 2.029a.065.065 0 0 0-.017-.041.1.1 0 0 0-.043-.009h-.068v.163h.034v-.064h.025l.026.064h.043l-.026-.071a.043.043 0 0 0 .026-.042zm-.052.018a.054.054 0 0 1-.017 0h-.025v-.035h.043s.009.01.009.016-.001.015-.009.019z"
      fill="#3d2721"></path>
    <path d="M22.55 0H.6a.6.6 0 0 0-.6.6v13.804a.6.6 0 0 0 .6.6h21.95a.6.6 0 0 0 .6-.6V.596a.6.6 0 0 0-.6-.596zm-1.482 10.892a.178.178 0 0 1-.068.069.192.192 0 0 1-.191 0 .185.185 0 0 1-.071-.072.192.192 0 0 1-.025-.1.2.2 0 0 1 .026-.1.177.177 0 0 1 .072-.071.2.2 0 0 1 .095-.025.2.2 0 0 1 .094.025.174.174 0 0 1 .072.071.2.2 0 0 1 .025.1.186.186 0 0 1-.029.103zm.429-3.392a5.939 5.939 0 0 1-9.925 4.405A5.94 5.94 0 1 1 7.551 1.561h.039a5.917 5.917 0 0 1 3.982 1.535 5.94 5.94 0 0 1 9.926 4.4l.002.004z"
      fill="#3d2721"></path>
    <path d="M12.168 3.705h-1.145c-.154.208-.3.429-.43.646h2.044a6.106 6.106 0 0 0-.469-.646zm1.244 3.378a4.7 4.7 0 0 1 .52.035l.1-.546a5.6 5.6 0 0 0-.639-.047c-.8 0-1.082.364-1.082.8 0 .3.171.5.554.659.289.118.332.153.332.261 0 .146-.127.213-.409.213a2.307 2.307 0 0 1-.648-.093l-.1.545.034.006.128.023a1.779 1.779 0 0 0 .2.021c.17.012.3.02.391.02.767 0 1.117-.249 1.117-.788 0-.324-.145-.514-.511-.658-.3-.119-.332-.146-.332-.257-.005-.129.114-.194.345-.194zm3.677-.51l-.06-.014a.528.528 0 0 0-.077-.006c-.23 0-.4.1-.622.384l.071-.359h-.648l-.435 2.363h.716c.256-1.445.366-1.7.707-1.7a.765.765 0 0 1 .085.006l.085.017.257-.667a.623.623 0 0 0-.079-.024zm-2.119.584h.367l.1-.575h-.366l.1-.542h-.707l-.332 1.8-.034.187-.043.233a1.878 1.878 0 0 0-.017.212c0 .335.2.519.562.519a1.859 1.859 0 0 0 .511-.077l.094-.524a.638.638 0 0 1-.187.023c-.17 0-.248-.052-.248-.175a.462.462 0 0 1 .009-.1zm4.4 1.4a.185.185 0 1 0 .188.184.187.187 0 0 0-.188-.184zm0 .325a.14.14 0 1 1 0-.281.14.14 0 0 1 0 .281zm-1.128-2.371a1.326 1.326 0 0 0-1.406 1.4 1.012 1.012 0 0 0 1.134 1.09 1.258 1.258 0 0 0 1.389-1.134 1.641 1.641 0 0 0 .017-.293 1.029 1.029 0 0 0-1.134-1.063zm.349 1.339a.7.7 0 0 1-.545.579c-.256 0-.409-.211-.409-.532 0-.379.221-.81.588-.81.29 0 .391.234.391.481a1.454 1.454 0 0 1-.025.282zm-6.553.112a2.3 2.3 0 0 0 .086-.584.854.854 0 0 0-.963-.858 1.3 1.3 0 0 0-1.243 1.405c0 .7.417 1.059 1.218 1.059a2.766 2.766 0 0 0 .724-.1l.119-.592a1.888 1.888 0 0 1-.741.15c-.409 0-.622-.139-.622-.413a.262.262 0 0 1 .009-.074h1.413zm-.885-.9c.213 0 .332.112.332.3v.121h-.793c.069-.272.232-.422.461-.422zm-1.004 2.94a6.117 6.117 0 0 0 .356.646h2.14a6 6 0 0 0 .351-.646zm.805 1.242a5.891 5.891 0 0 0 .617.659l.015-.013a6.028 6.028 0 0 0 .615-.646z"
      fill="#3d2721"></path>
  </symbol>
  <symbol xmlns="http://www.w3.org/2000/svg" viewBox="0 0 23.146 15" id="paying-mastercard">
    <path d="M6.179 6.485a2.217 2.217 0 0 0-.778.141l-.093.553a2.026 2.026 0 0 1 .7-.113c.239 0 .414.027.414.221a.416.416 0 0 1-.021.162s-.188-.015-.276-.015c-.555 0-1.139.236-1.139.951a.609.609 0 0 0 .62.692.834.834 0 0 0 .659-.295l-.021.245h.565l.252-1.768a.76.76 0 0 0-.882-.774zm-.317 2.054a.234.234 0 0 1-.251-.243c0-.176.1-.387.566-.387a.4.4 0 0 1 .14.015c.012.109-.068.615-.455.615zM8.19 7.077c.09 0 .438.029.438.029l.081-.567a3 3 0 0 0-.592-.05c-.475 0-.957.19-.957.838 0 .736.8.661.8.971 0 .206-.225.223-.4.223a2.055 2.055 0 0 1-.57-.1l-.086.562a2.073 2.073 0 0 0 .721.078c.144 0 .971.037.971-.816 0-.8-.765-.64-.765-.961.005-.157.13-.207.359-.207zm1.325.075h.34l.082-.6h-.32l.065-.374H9.04c-.014.014-.379 2.112-.379 2.366a.476.476 0 0 0 .512.544 1.655 1.655 0 0 0 .481-.084l.08-.546c-.044 0-.109.019-.166.019-.223 0-.248-.119-.234-.207zm2.653-3.447h-1.145c-.154.208-.3.429-.43.646h2.044a6.106 6.106 0 0 0-.469-.646zm8.765 7.158a.331.331 0 0 0-.031-.042.045.045 0 0 0-.018-.011.065.065 0 0 0 .044-.019.057.057 0 0 0 .016-.04.056.056 0 0 0-.01-.031.05.05 0 0 0-.027-.02.158.158 0 0 0-.053-.006h-.071v.21h.034v-.089h.02a.04.04 0 0 1 .027.007.189.189 0 0 1 .036.049l.018.033h.042zm-.076-.076h-.042v-.063h.039a.1.1 0 0 1 .033 0 .033.033 0 0 1 .015.011.029.029 0 0 1 0 .016.029.029 0 0 1-.01.024.07.07 0 0 1-.035.012zm-7.872-5.822h-2.749c-.176.332-.292.584-.325.646h3.334a6.09 6.09 0 0 0-.26-.646zM4.282 5.978l-.633 1.876-.033-1.876h-.937l-.513 3.057h.619l.391-2.3.057 2.3h.442l.825-2.3-.366 2.3h.657l.506-3.057zm12.134.507a2.215 2.215 0 0 0-.778.141l-.094.553a2.029 2.029 0 0 1 .7-.113c.239 0 .414.027.414.221a.4.4 0 0 1-.022.162s-.188-.015-.276-.015c-.555 0-1.138.236-1.138.951a.609.609 0 0 0 .62.692.836.836 0 0 0 .659-.295l-.021.245h.565l.252-1.768a.758.758 0 0 0-.881-.774zM16.1 8.539a.234.234 0 0 1-.251-.243c0-.176.1-.387.566-.387a.408.408 0 0 1 .14.015c.011.109-.07.615-.456.615zm4.854.195a.175.175 0 0 0-.073-.072.194.194 0 0 0-.1-.025.21.21 0 0 0-.1.025.177.177 0 0 0-.073.072.2.2 0 0 0-.026.1.192.192 0 0 0 .026.1.186.186 0 0 0 .072.073.2.2 0 0 0 .1.026.2.2 0 0 0 .1-.026.2.2 0 0 0 .1-.169.192.192 0 0 0-.026-.104zm-.027.178a.157.157 0 0 1-.06.061.161.161 0 0 1-.161 0 .155.155 0 0 1-.061-.061.159.159 0 0 1-.022-.081.157.157 0 0 1 .022-.081.151.151 0 0 1 .061-.06.162.162 0 0 1 .08-.021.16.16 0 0 1 .079.021.149.149 0 0 1 .061.06.166.166 0 0 1 .022.081.162.162 0 0 1-.021.085z"
      fill="#3d2721"></path>
    <path d="M20.851 8.897a.261.261 0 0 0-.031-.042.048.048 0 0 0-.018-.011.064.064 0 0 0 .043-.019.058.058 0 0 0 .017-.04.054.054 0 0 0-.01-.031.059.059 0 0 0-.026-.02.161.161 0 0 0-.053-.006H20.7v.21h.034v-.089h.02a.045.045 0 0 1 .027.007.212.212 0 0 1 .036.05l.018.033h.042zm-.075-.077h-.041v-.064h.038a.124.124 0 0 1 .034 0 .033.033 0 0 1 .014.011.027.027 0 0 1 .005.017.031.031 0 0 1-.01.023.06.06 0 0 1-.04.013zm-2.204-2.305c-.287 0-.5.392-.5.392l.057-.361h-.6l-.4 2.489h.659c.188-1.063.222-1.926.667-1.768a2.469 2.469 0 0 1 .24-.744.733.733 0 0 0-.123-.008z"
      fill="#3d2721"></path>
    <path d="M20.156 5.981l-.139.859a.847.847 0 0 0-.62-.334c-.589 0-1.079.71-1.079 1.524 0 .526.262 1.042.8 1.042a.8.8 0 0 0 .6-.268l-.028.229h.624l.491-3.053zm-.814 2.467c-.231 0-.339-.194-.339-.5 0-.5.223-.826.506-.826.23 0 .349.159.349.533-.001.337-.168.793-.516.793z"
      fill="#3d2721"></path>
    <path d="M22.55 0H.6a.6.6 0 0 0-.6.6v13.804a.6.6 0 0 0 .6.6h21.95a.6.6 0 0 0 .6-.6V.596a.6.6 0 0 0-.6-.596zm-1.482 10.892a.178.178 0 0 1-.068.069.192.192 0 0 1-.191 0 .185.185 0 0 1-.071-.072.192.192 0 0 1-.025-.1.2.2 0 0 1 .026-.1.177.177 0 0 1 .072-.071.2.2 0 0 1 .095-.025.2.2 0 0 1 .094.025.174.174 0 0 1 .072.071.2.2 0 0 1 .025.1.186.186 0 0 1-.029.103zm.429-3.392a5.939 5.939 0 0 1-9.925 4.405A5.94 5.94 0 1 1 7.551 1.561h.039a5.917 5.917 0 0 1 3.982 1.535 5.94 5.94 0 0 1 9.926 4.4l.002.004z"
      fill="#3d2721"></path>
    <path d="M10.954 11.248a6 6 0 0 0 .617.659l.015-.013a6.027 6.027 0 0 0 .615-.646zm.833-3.25a4.609 4.609 0 0 0 .084-.585.861.861 0 0 0-.915-.939c-.646 0-1.124.7-1.124 1.482a1.008 1.008 0 0 0 1.109 1.123 1.628 1.628 0 0 0 .678-.106l.113-.619a2 2 0 0 1-.682.158c-.689 0-.569-.514-.569-.514zm-.829-.948c.362 0 .3.407.3.44h-.713c-.004-.042.059-.44.414-.44zm3.782-.486a1.143 1.143 0 0 1 .589.183l.1-.68a2.3 2.3 0 0 0-.723-.157c-.741 0-1.462.643-1.462 1.851 0 .8.389 1.33 1.155 1.33a2.975 2.975 0 0 0 .562-.088l.115-.7a1.542 1.542 0 0 1-.531.158.636.636 0 0 1-.639-.721c.005-.76.397-1.176.834-1.176zm-4.591 3.437a5.963 5.963 0 0 0 .356.646h2.14a6.038 6.038 0 0 0 .351-.646zm3.118-3.485c-.287 0-.5.392-.5.392l.058-.361h-.6l-.4 2.489h.659c.187-1.063.222-1.926.667-1.768a2.469 2.469 0 0 1 .239-.745.651.651 0 0 0-.123-.007z"
      fill="#3d2721"></path>
  </symbol>
  <symbol xmlns="http://www.w3.org/2000/svg" viewBox="0 0 23.146 15" id="paying-paypal">
    <path d="M4.979 6.11a.78.78 0 0 0-.424-.094h-.159a.246.246 0 0 0-.232.185l-.147.632a.145.145 0 0 0 .148.186h.119a1.02 1.02 0 0 0 .616-.162.524.524 0 0 0 .219-.458.322.322 0 0 0-.14-.289zm2.56 1.435c-.029 0-.249.026-.36.04a1.84 1.84 0 0 0-.321.072l-.206.141a.367.367 0 0 0-.071.238l.094.182a.581.581 0 0 0 .277.053.681.681 0 0 0 .255-.056l.191-.1.076-.1c.03-.117.092-.378.1-.411z"
      fill="#3d2721"></path>
    <path d="M22.55 0H.6a.6.6 0 0 0-.6.6v13.804a.6.6 0 0 0 .6.6h21.95a.6.6 0 0 0 .6-.6V.596a.6.6 0 0 0-.6-.596zM5.526 7.276a2.271 2.271 0 0 1-1.367.361h-.137a.245.245 0 0 0-.23.182l-.165.712a.246.246 0 0 1-.23.183h-.48a.142.142 0 0 1-.145-.183l.674-2.935a.251.251 0 0 1 .231-.183h1a3.387 3.387 0 0 1 .566.045 1.235 1.235 0 0 1 .417.153.71.71 0 0 1 .262.282.886.886 0 0 1 .092.432 1.122 1.122 0 0 1-.488.951zM8.5 6.902l-.018.123-.35 1.513a.248.248 0 0 1-.206.179h-.451a.142.142 0 0 1-.128-.179l.018-.077-.181.119-.2.11-.232.08a1.338 1.338 0 0 1-.3.027.733.733 0 0 1-.505-.172.592.592 0 0 1-.2-.455.888.888 0 0 1 .137-.5.941.941 0 0 1 .413-.325 2.2 2.2 0 0 1 .608-.167c.239-.034.435-.059.708-.077l.069-.043.009-.068a.221.221 0 0 0-.145-.218 1.187 1.187 0 0 0-.436-.061 2.065 2.065 0 0 0-.45.06 2.591 2.591 0 0 0-.287.085c-.037.013-.126.019-.093-.135l.059-.241a.282.282 0 0 1 .211-.222c.088-.02.1-.023.246-.045a3.807 3.807 0 0 1 .58-.045 1.82 1.82 0 0 1 .857.153.507.507 0 0 1 .273.474zm.771 2.981h-.5c-.1 0-.137-.082-.074-.183l.425-.741s.034-.042 0-.284c-.066-.437-.392-2.294-.392-2.294a.141.141 0 0 1 .143-.183h.43a.264.264 0 0 1 .261.188l.214 1.288h.08c.067-.118.754-1.3.754-1.3a.417.417 0 0 1 .3-.183h.575c.17 0-.013.274-.013.274L9.573 9.701a.4.4 0 0 1-.3.182zm4.966-2.594a2.287 2.287 0 0 1-1.37.36h-.137a.247.247 0 0 0-.23.182l-.162.713a.248.248 0 0 1-.23.18h-.481a.142.142 0 0 1-.145-.182l.675-2.937a.251.251 0 0 1 .229-.182h1a3.341 3.341 0 0 1 .563.044 1.184 1.184 0 0 1 .418.153.736.736 0 0 1 .264.284.921.921 0 0 1 .092.432 1.138 1.138 0 0 1-.485.953zm2.974-.385l-.018.124-.351 1.512a.247.247 0 0 1-.2.18h-.453a.14.14 0 0 1-.128-.179l.016-.077-.179.121-.2.109-.232.078a1.379 1.379 0 0 1-.3.028.737.737 0 0 1-.5-.173.588.588 0 0 1-.2-.455.882.882 0 0 1 .137-.5.951.951 0 0 1 .412-.326 2.237 2.237 0 0 1 .609-.167c.237-.034.434-.059.708-.076l.069-.043.007-.068a.219.219 0 0 0-.145-.218 1.175 1.175 0 0 0-.435-.062 2.14 2.14 0 0 0-.45.06 2.739 2.739 0 0 0-.285.085c-.04.012-.127.019-.094-.135l.059-.241a.279.279 0 0 1 .211-.222c.089-.019.1-.024.247-.045a3.648 3.648 0 0 1 .58-.046 1.825 1.825 0 0 1 .857.154.506.506 0 0 1 .274.473zm1.537-1.273l-.643 2.91-.023.034a.244.244 0 0 1-.207.148h-.446l-.008-.01a.136.136 0 0 1-.12-.171l.019-.084.6-2.73.021-.1.024-.037a.244.244 0 0 1 .207-.145h.428a.142.142 0 0 1 .145.182zm.852-.315h-.16v.271l.011.039.025.025.049.008.04-.006.03-.009v.07l-.048.009h-.045l-.109-.039-.037-.123v-.248h-.054v-.066h.054v-.133h.079v.133h.165zm.777.1v.3H20.3v-.323l-.01-.045-.027-.027-.052-.009-.065.017-.067.042v.346H20v-.324l-.011-.045-.026-.027-.053-.009-.064.016-.065.041v.348H19.7V5.25h.077v.052l.075-.048.077-.017.081.019.05.056.086-.058.084-.017.114.046.037.13z"
      fill="#3d2721"></path>
    <path d="M16.244 7.547c-.029 0-.248.025-.358.04a1.761 1.761 0 0 0-.321.072.494.494 0 0 0-.208.141.376.376 0 0 0-.07.238l.1.182a.557.557 0 0 0 .277.054.684.684 0 0 0 .253-.055l.19-.1.078-.1.1-.411zm-2.563-1.426a.781.781 0 0 0-.423-.094h-.159a.249.249 0 0 0-.233.185l-.147.632a.146.146 0 0 0 .149.186h.121a1.038 1.038 0 0 0 .615-.16.536.536 0 0 0 .219-.459.33.33 0 0 0-.142-.29z"
      fill="#3d2721"></path>
  </symbol>
  <symbol xmlns="http://www.w3.org/2000/svg" viewBox="0 0 23.146 15" id="paying-visa">
    <path d="M22.55 0H.6a.6.6 0 0 0-.6.6v13.804a.6.6 0 0 0 .6.6h21.95a.6.6 0 0 0 .6-.6V.596a.6.6 0 0 0-.6-.596zM1.792 4.533h2.47a.641.641 0 0 1 .694.475l.537 2.584A5.071 5.071 0 0 0 1.771 4.65zm2.989 5.893L3.354 5.551a6.257 6.257 0 0 1 2.207 2.423l.166.6 1.561-3.987h1.689l-2.509 5.838zm5.436 0H8.624l1-5.847h1.594zm2.773.088a5.044 5.044 0 0 1-1.775-.312l.224-1.308.205.093a3.339 3.339 0 0 0 1.5.307c.458 0 .948-.179.953-.571 0-.256-.205-.439-.826-.726-.6-.279-1.406-.748-1.4-1.588.009-1.136 1.118-1.929 2.693-1.929A4.113 4.113 0 0 1 16 4.728l-.215 1.268-.144-.068a2.94 2.94 0 0 0-1.193-.224c-.624 0-.913.26-.913.5 0 .274.338.454.9.725.919.417 1.344.923 1.338 1.588-.02 1.217-1.107 2.001-2.783 2.001zm6.905-.085s-.145-.668-.195-.868h-2.041c-.062.158-.335.879-.335.879h-1.671l2.366-5.358a.794.794 0 0 1 .835-.485h1.231l1.29 5.843z"
      fill="#3d2721"></path>
    <path d="M19.071 6.665l-.109-.512c-.082.223-.224.582-.215.567l-.644 1.659h1.343z" fill="#3d2721"></path>
  </symbol>
  <symbol xmlns="http://www.w3.org/2000/svg" viewBox="0 0 57.065 57.065" id="refund">
    <path d="M28.533 8.874a19.659 19.659 0 1 0 19.659 19.659A19.681 19.681 0 0 0 28.533 8.874zm0 37.468a17.81 17.81 0 1 1 17.81-17.81 17.83 17.83 0 0 1-17.81 17.81z" fill="#3d2721"></path>
    <path d="M29.457 27.827V20.62c3.02.243 5.053 1.648 5.053 2.921a.924.924 0 0 0 1.849 0c0-2.5-2.965-4.5-6.9-4.774v-1.081a.924.924 0 0 0-1.849 0v1.083c-3.937.273-6.9 2.271-6.9 4.774 0 3.353 3.188 4.661 6.9 5.7v7.207c-3.02-.243-5.053-1.648-5.053-2.921a.924.924 0 0 0-1.849 0c0 2.5 2.965 4.5 6.9 4.774v1.081a.924.924 0 0 0 1.849 0v-1.081c3.937-.273 6.9-2.271 6.9-4.774.002-3.36-3.186-4.666-6.9-5.702zm-1.849-.514c-3.749-1.108-5.053-2.114-5.053-3.772 0-1.273 2.033-2.678 5.053-2.921zm1.849 9.132v-6.693c3.749 1.108 5.053 2.114 5.053 3.772 0 1.273-2.033 2.678-5.053 2.921z"
      fill="#3d2721"></path>
    <path d="M48.708 8.357A28.532 28.532 0 0 0 7.249 9.529l.506-3.544a.924.924 0 0 0-1.83-.261l-.986 6.9a.924.924 0 0 0 1.208 1.008l5.916-1.972a.924.924 0 1 0-.585-1.754l-2.972.991A26.684 26.684 0 1 1 47.397 47.4a26.509 26.509 0 0 1-18.868 7.815.924.924 0 1 0 0 1.849A28.533 28.533 0 0 0 48.708 8.357zM24.72 54.947c-.314-.045-.631-.1-.941-.152a.925.925 0 0 0-.327 1.82c.332.06.67.114 1.006.162a.924.924 0 1 0 .262-1.83zm-4.518-1.057a26.244 26.244 0 0 1-1.733-.637.925.925 0 0 0-.7 1.712 27.99 27.99 0 0 0 1.854.681.925.925 0 1 0 .577-1.757zM2.467 34.249a26.77 26.77 0 0 1-.331-1.815.924.924 0 1 0-1.829.268c.1.648.214 1.3.354 1.942a.924.924 0 1 0 1.806-.394zm-.316-13.931a.925.925 0 0 0-1.136.647 28.66 28.66 0 0 0-.456 1.921.924.924 0 1 0 1.812.364c.121-.6.264-1.205.426-1.8a.924.924 0 0 0-.646-1.132zM4.2 39.496a26.684 26.684 0 0 1-.7-1.707.924.924 0 0 0-1.734.641c.227.614.479 1.228.748 1.826a.924.924 0 0 0 1.685-.76zM1.03 25.93a.924.924 0 0 0-.978.867A28.682 28.682 0 0 0 0 28.534v.236a.924.924 0 0 0 .924.917h.009a.925.925 0 0 0 .917-.932v-.222c0-.541.016-1.087.049-1.624a.924.924 0 0 0-.869-.979zm14.128 25.697a27.077 27.077 0 0 1-1.564-.981.924.924 0 1 0-1.036 1.531c.543.368 1.106.721 1.672 1.049a.925.925 0 0 0 .928-1.6zM6.981 44.27a27.12 27.12 0 0 1-1.038-1.526.924.924 0 0 0-1.564.986c.349.554.723 1.1 1.109 1.632a.924.924 0 0 0 1.492-1.091zm3.707 4.102c-.456-.41-.9-.841-1.329-1.281a.924.924 0 0 0-1.328 1.286c.456.471.934.932 1.42 1.37a.924.924 0 1 0 1.237-1.374zm-6.71-32.506a.925.925 0 0 0-1.232.438c-.145.305-.287.617-.421.928a.926.926 0 1 0 1.7.733 25 25 0 0 1 .393-.867.924.924 0 0 0-.44-1.232z"
      fill="#3d2721"></path>
  </symbol>
  <symbol xmlns="http://www.w3.org/2000/svg" viewBox="0 0 44.075 56.601" id="secure">
    <path d="M43.514 11.46L22.245.125a1.057 1.057 0 0 0-1.011.005L.545 11.466a1.059 1.059 0 0 0-.55.929V27.2a30.659 30.659 0 0 0 18.376 28.06l2.874 1.253a1.058 1.058 0 0 0 .843 0l3.235-1.4a30.6 30.6 0 0 0 18.752-28.205V12.4a1.059 1.059 0 0 0-.561-.935zm-1.557 15.448a28.485 28.485 0 0 1-17.461 26.26h-.007l-2.817 1.216-2.449-1.064A28.538 28.538 0 0 1 2.117 27.2V13.022l19.628-10.76L41.957 13.03zm0 0"
      fill="#3d2721"></path>
    <path d="M13.937 26.515a1.059 1.059 0 0 0-1.611 1.375l5.594 6.551a1.059 1.059 0 0 0 1.473.134l13.029-10.6a1.06 1.06 0 0 0-1.337-1.643l-12.227 9.947zm0 0" fill="#3d2721"></path>
  </symbol>
  <symbol xmlns="http://www.w3.org/2000/svg" viewBox="0 0 293.494 105.985" id="wtt-union">
    <path d="M164.938 105.984V91.728h-5.566v-1.364h12.671v1.364h-5.566v14.256zm-14.146 0V91.728h-5.566v-1.364h12.671v1.364h-5.566v14.256zm-15.378 0l-3.28-7.722-3.3 7.722h-1.364l-6.576-15.62h1.627l5.676 13.837 2.971-7.06-2.729-6.667h1.474l2.2 5.545 2.224-5.545h1.45l-2.726 6.667 2.991 7.06 5.654-13.837h1.671l-6.6 15.62zm34.166-5.3v-1.385h6.4v1.385zm-14.146 0v-1.385h6.4v1.385zm-14.146 0v-1.385h6.4v1.385zm-24.706 0v-1.385h6.4v1.385zm-79.318-5.269a4.026 4.026 0 0 1-2.622-1.1q-5.8-5.381-5.8-36.02c0-8.555.276-16.836.552-22.355a192.824 192.824 0 0 1-8.278 27.187c-3.038 7.451-7.453 16.422-12.007 17.25H8.42a4.038 4.038 0 0 1-2.622-1.1Q.003 73.896-.002 43.26c0-15.042 1.1-29.394 1.1-29.532 0-.276.275-.414.552-.414a.591.591 0 0 1 .552.552c0 .138-1.1 14.352-1.1 29.394 0 19.733 1.8 31.878 5.384 35.189a2.907 2.907 0 0 0 2.483.828c3.035-.552 7.037-6.35 11.041-16.56a187.317 187.317 0 0 0 9.8-33.672.426.426 0 0 0 .139-.276c0-.276.275-.414.552-.414a.594.594 0 0 1 .552.552c0 .138-1.1 14.352-1.1 29.392 0 19.736 1.793 31.881 5.381 35.192a2.915 2.915 0 0 0 2.486.828c3.012-.548 6.976-6.261 10.945-16.326h-5.979a.5.5 0 0 1-.5-.5.5.5 0 0 1 .5-.5h6.383a189 189 0 0 0 9.487-32.906c1.932-9.937 3.035-18.908 3.035-25.807-.138-7.589-1.38-12.421-3.863-13.938-.275-.138-.275-.552-.138-.828s.414-.276.689-.138c2.9 1.794 4.277 6.763 4.416 14.9 0 7.037-1.1 16.008-3.036 26.083a218.086 218.086 0 0 1-9.337 32.63h86.354a1.12 1.12 0 0 1-.15-.062 2.074 2.074 0 0 1-1.519-1.656c-.138-1.521.553-3.866 4.14-7.867a34.17 34.17 0 0 0-2.9-3.725 14.694 14.694 0 0 1-.966-18.906c2.76-3.866 6.761-5.108 10.349-3.176a.5.5 0 0 1 .275.692c-.138.276-.552.276-.689.276-3.174-1.658-6.623-.554-9.106 2.76-3.452 4.553-4.277 12.28.827 17.664a16.549 16.549 0 0 1 2.9 3.587 106.394 106.394 0 0 1 9.385-8.693.647.647 0 0 1 .828.135c.138.276.138.554-.139.692a80.245 80.245 0 0 0-9.522 8.831 8.858 8.858 0 0 1 1.241 4.277 6.4 6.4 0 0 1-2.483 4.694 1.906 1.906 0 0 1-.981.476H166c.105-14.869 2.591-46.007 4.021-62.3a73.223 73.223 0 0 0-9.8 2.9c-6.623 2.622-9.383 5.105-9.383 5.105a.507.507 0 0 1-.414.138c-.138 0-.275-.138-.414-.138a.624.624 0 0 1 0-.828c.139-.138 3.036-2.622 9.659-5.243a82.279 82.279 0 0 1 10.351-3.036c.552-5.108.828-8.557.828-9.247a.482.482 0 0 1 .689-.414c.276 0 .414.276.414.552 0 .138-.276 3.587-.69 8.833a92.014 92.014 0 0 1 11.662-1.712c.923-5.372 2.4-8.89 4.761-9.467a2.922 2.922 0 0 1 2.621.828c1.185 1.279 1.461 4.277 1.172 8.173q.716-.018 1.45-.03c.413 0 .552.138.552.552a.506.506 0 0 1-.552.552q-.781.012-1.546.033c-1.3 13.508-8.525 36.117-8.94 37.364v.138c.138 7.589.413 14.49.689 18.078l4.277-13.386a1.037 1.037 0 0 1 .966-.69 1.037 1.037 0 0 1 .966.69c.828 2.208 3.449 9.109 6.764 9.385 1.729.133 3.331-1.4 5.052-4.608a8.624 8.624 0 0 1 .467-1.742c.69-1.932 1.932-3.035 3.312-2.9a2.449 2.449 0 0 1 2.07 1.38c.827 2.208-2.622 6.626-3.726 7.867.138 0 .138.138.275.138 1.242.828 4.691 1.242 12.835-6.071a.477.477 0 0 1 .689.135.628.628 0 0 1 0 .692c-5.795 5.243-9.522 6.761-11.868 6.761a3.946 3.946 0 0 1-2.346-.69 4.462 4.462 0 0 1-1.767-3.305c-1.578 2.354-3.243 3.524-4.994 3.305-3.729-.276-6.35-6.209-7.729-9.8l-5.105 15.732a.44.44 0 0 1-.414.414h-.138c-.275 0-.414-.276-.414-.552 0 0-1.1-12.559-.966-26.08V41.87c.076-11.135.279-21.68 1.4-29.118-4.42.413-8.3 1.012-11.613 1.658-1.438 16.27-3.942 47.809-4.094 62.577h63c.105-14.869 2.59-46.007 4.021-62.3a73.376 73.376 0 0 0-9.8 2.9c-6.622 2.622-9.382 5.105-9.382 5.105a.507.507 0 0 1-.414.138c-.138 0-.276-.138-.414-.138a.623.623 0 0 1 0-.828c.138-.138 3.035-2.622 9.658-5.243a82.35 82.35 0 0 1 10.352-3.036c.552-5.108.827-8.557.827-9.247a.483.483 0 0 1 .69-.414c.275 0 .414.276.414.552 0 .138-.276 3.587-.69 8.833a110.413 110.413 0 0 1 21.665-2.208c.414 0 .552.138.552.552a.505.505 0 0 1-.552.552 123.884 123.884 0 0 0-21.8 2.208c-1.438 16.27-3.942 47.809-4.094 62.577h19.722a.5.5 0 0 1 .5.5.5.5 0 0 1-.5.5h-19.729a31.739 31.739 0 0 0 .375 6.389.5.5 0 0 1-.275.69h-.276a.441.441 0 0 1-.414-.414 31.459 31.459 0 0 1-.437-6.665h-63a31.815 31.815 0 0 0 .375 6.389.5.5 0 0 1-.275.69h-.276a.441.441 0 0 1-.414-.414 31.6 31.6 0 0 1-.437-6.665H50.036l-.071.18c-3.035 7.451-7.451 16.422-12 17.25zm98.945-20.426a1.21 1.21 0 0 0 .827.968 1.918 1.918 0 0 0 1.519-.276 5.825 5.825 0 0 0 2.069-3.866 8.388 8.388 0 0 0-.828-3.449c-3.588 3.999-3.727 5.93-3.588 6.62zm66.377-12c1.794-2.07 3.864-5.384 3.312-6.763 0-.138-.138-.414-1.1-.552h-.138c-.966 0-1.656 1.1-2.07 2.21a9.391 9.391 0 0 0-.273 1.012.628.628 0 0 1 0 .506l-.122.233a6.016 6.016 0 0 0 .386 3.347zM182.44 42.011v4.28c2.7-8.962 6.875-24.249 7.882-34.02-2.286.08-4.462.214-6.525.389-1.307 8.4-1.359 20.656-1.359 29.344zm1.548-30.5q3.047-.239 6.437-.349c.3-3.668.075-6.413-.948-7.512a1.252 1.252 0 0 0-.966-.414h-.552c-1.907.431-3.156 3.657-3.973 8.266zm-81.175 61c0-.109-.26-4.2-.436-10.153a7.045 7.045 0 0 1-4.534 3.254h-.552a3.743 3.743 0 0 1-3.312-2.07 11.235 11.235 0 0 1-1.38-3.449c-.413.966-1.1 1.932-2.069 2.07a1.719 1.719 0 0 1-1.655-.414 3.727 3.727 0 0 1-.9-1.216c-1.752 2.982-3.614 4.5-5.587 4.251-3.728-.276-6.35-6.209-7.729-9.8l-5.105 15.732a.44.44 0 0 1-.413.414h-.139c-.275 0-.416-.276-.416-.552 0 0-1.1-12.559-.966-26.08v-2.624c.138-20.147.692-38.363 6.35-39.743a2.922 2.922 0 0 1 2.621.828c5.243 5.657-7.312 44.988-7.864 46.644v.138c.138 7.589.414 14.49.689 18.078l4.277-13.386a1.037 1.037 0 0 1 .966-.69 1.037 1.037 0 0 1 .966.69c.828 2.208 3.449 9.109 6.764 9.385 1.777.137 3.419-1.488 5.194-4.876a4.886 4.886 0 0 1 .325-2.025 4.218 4.218 0 0 1 4-3.036 3.686 3.686 0 0 1 3.863 3.725.592.592 0 0 1-.552.552.591.591 0 0 1-.552-.552 2.592 2.592 0 0 0-2.76-2.622 3.3 3.3 0 0 0-3.035 2.346 3.941 3.941 0 0 0-.245 1.656.684.684 0 0 1 .022.2 2.749 2.749 0 0 0 .912 1.732 1.362 1.362 0 0 0 .828.276c.828-.276 1.655-2.07 1.932-2.76.138-.552.414-.969.828-.831a.619.619 0 0 1 .413.552v.279a8.452 8.452 0 0 0 1.242 4.553 2.877 2.877 0 0 0 2.9 1.518c1.794-.138 3.866-2.208 4.556-4.415a.338.338 0 0 1 .051-.184q-.029-1.252-.051-2.578c-.275-.138-.414-.276-.275-.552a11.969 11.969 0 0 1 .138-1.518c0-4-.138-8.279 0-12.559v-2.9c0-4.829.138-9.245.138-13.386-7.315 1.382-13.8 3.452-13.938 3.452h-.138c-.275 0-.414-.138-.552-.414s.138-.552.414-.69c.552-.138 7.037-2.07 14.214-3.452.414-13.522 1.242-23.183 3.588-24.976a2.021 2.021 0 0 1 1.518-.276c.828.276 2.483.69 0 24.425 6.347-.828 12.282-.828 14.628 1.658.276.411 1.1 1.242.69 2.208-.414.828-1.932.828-2.346.828-.276 0-.414-.276-.414-.552a.594.594 0 0 1 .552-.552c.552.138 1.242-.138 1.242-.276 0 0 0-.276-.552-.828-2.07-2.348-7.868-2.348-13.938-1.382-.139 1.106-.276 2.348-.414 3.59-1.38 11.038-3.036 22.217-3.588 26.218.276 9.385.69 16.974.69 17.112a.594.594 0 0 1-.552.552.594.594 0 0 1-.554-.555zm.553-46.366c-.139 4.691-.139 9.521-.139 13.66l-.138 2.9v5.936c.828-5.105 1.794-12.007 2.622-19.043.138-1.38.275-2.622.413-3.866-.967.126-1.794.264-2.76.405zM68.728 42.012v4.28C72.591 33.457 79.49 7.65 75.764 3.649a1.252 1.252 0 0 0-.966-.414h-.552c-5.382 1.234-5.52 24.696-5.52 38.769zm37.811-40.846c-2.069 1.656-2.9 12.558-3.173 23.873l2.9-.414c2.207-20.7 1.1-23.321.689-23.6-.142-.009-.279.133-.418.133zm144.21 65.412c-3.312-.828-4.967-6.347-3.726-12.559 0-.276.276-.414.553-.414a.482.482 0 0 1 .413.69c-1.1 5.936.69 10.627 3.036 11.317 2.069.552 4.415-2.07 6.209-6.9a.292.292 0 0 1 .138-.24V45.74a.506.506 0 0 1 .552-.552.507.507 0 0 1 .555.552v17.25l3.726-12.7a1.326 1.326 0 0 1 1.242-.828 1.171 1.171 0 0 1 .966 1.1c.138 7.451.275 11.593.552 13.249.552-1.242 1.1-3.863 1.655-5.522a18.75 18.75 0 0 1 .966-3.449.7.7 0 0 1 .69-.552.93.93 0 0 1 .827.552c.553 2.76 2.208 7.315 4.554 7.867 1.1.274 2.332-.543 3.7-2.317a8.7 8.7 0 0 1 .577-2.929c.689-1.932 1.932-3.035 3.311-2.9a2.449 2.449 0 0 1 2.07 1.38c.828 2.208-2.622 6.626-3.726 7.867.138 0 .138.138.276.138 1.241.828 4.69 1.242 12.834-6.071a.478.478 0 0 1 .69.135.632.632 0 0 1 0 .692c-5.8 5.243-9.523 6.761-11.869 6.761a3.946 3.946 0 0 1-2.346-.69 4.249 4.249 0 0 1-1.7-2.84c-1.409 1.542-2.8 2.109-4.1 1.874-2.9-.69-4.553-5.381-5.1-7.591-.276.552-.414 1.518-.69 2.348-.966 3.725-1.655 6.209-2.207 6.9a.88.88 0 0 1-.828 0c-.414-.138-1.1-.414-1.242-14.9l-4.693 15.594c0 .276-.276.414-.55.414h-.141a.632.632 0 0 1-.552-.69v-4.72c-2.14 4.685-4.453 5.548-5.795 5.548a1.751 1.751 0 0 1-.829-.141zm28.153-8.693a7.211 7.211 0 0 0 0 5.105c1.793-2.07 3.863-5.384 3.312-6.763 0-.138-.139-.414-1.1-.552h-.138c-.972-.008-1.663 1.095-2.076 2.202zm-154.424-5.246a.518.518 0 0 1 0-.828c.276-.276.414-2.208.414-3.864a.506.506 0 0 1 .553-.552c.275 0 .413.276.413.552 0 1.518 0 4.139-.689 4.691 0 .138-.138.138-.276.138a.508.508 0 0 1-.412-.145zm122.684-2.76a.759.759 0 0 1-.414-.69l.414-3.174c0-.276.275-.552.552-.414a.594.594 0 0 1 .552.552l-.414 3.174c-.138.276-.275.552-.552.552z"
      fill="#cb9a71"></path>
  </symbol>
</svg>